# xmcd
#
# Track frame offsets:
#	150
#	9568
#	23267
#	30052
#	47304
#	63056
#	75009
#	86786
#	102453
#	117039
#	130748
#	142475
#	153222
#	167669
#	180917
#	191527
#
# Disc length: 2720 seconds
#
# Revision: 0
# Processed by: cddbd v1.5.1PL2 Copyright (c) Steve Scherf et al.
# Submitted via: EasyCDDAExtractor 4.6.9.1
#
DISCID=aa0a9e10
DTITLE=LyndaKay - Singing, Stomping and Strumming - The Basement Tapes, Vol. 1
DYEAR=2005
DGENRE=Country
TTITLE0=Ride Straddle Saloon
TTITLE1=Other Side of Farewell
TTITLE2=Honeydipper Stomp
TTITLE3=Lottie and Nell
TTITLE4=My Home
TTITLE5=He Spelled My Name Wrong
TTITLE6=Jack and Coke
TTITLE7=Waiting for Death
TTITLE8=Folsom Prison Blues
TTITLE9=Only in My Mind
TTITLE10=Trouble in Mind
TTITLE11=Train/On the Run
TTITLE12=Riverbed
TTITLE13=Pieces I'm Missing
TTITLE14=Dixieland Melody
TTITLE15=That's All Right
EXTD=
EXTT0=
EXTT1=
EXTT2=
EXTT3=
EXTT4=
EXTT5=
EXTT6=
EXTT7=
EXTT8=
EXTT9=
EXTT10=
EXTT11=
EXTT12=
EXTT13=
EXTT14=
EXTT15=
PLAYORDER=
